<?xml version="1.0" encoding="utf-8"?>
<!-- Generator: Adobe Illustrator 18.0.0, SVG Export Plug-In . SVG Version: 6.00 Build 0)  -->
<!DOCTYPE svg PUBLIC "-//W3C//DTD SVG 1.1//EN" "http://www.w3.org/Graphics/SVG/1.1/DTD/svg11.dtd">
<svg version="1.1" id="Layer_1" xmlns="http://www.w3.org/2000/svg" xmlns:xlink="http://www.w3.org/1999/xlink" x="0px" y="0px"
	 viewBox="0 0 250 56.4" enable-background="new 0 0 250 56.4" xml:space="preserve">
<g>
	<path fill="#231F20" d="M41,35.7c-1.1-0.2-1.4-1.5-1.4-1.5s-0.5,1.3-1.8,1.5c-1.4,0.2-1.6-0.9-1.6-0.9s-0.7,0.6-1-0.3
		c-0.3-0.9,0.2-1.1,0.2-1.1l0.6,0.1c0,0,0.2-1.3,1.4-2.2c1.2-0.9,2.7,0.8,2.7,0.8s0.3-1.2,1-1.8c0.7-0.6,1.7-0.5,1.7-0.5l-0.4-0.7
		c0,0-1,0.1-1.6,0.6c-0.6,0.5-1.1,1.4-1.1,1.4s-1.1-1.2-2.7-0.6c-1.7,0.6-1.7,2.2-1.7,2.2c0,0,0-0.1,0-0.1C35.1,32.4,35,32,35,31.4
		c0-0.2,0.1-0.4,0.2-0.6c0.1-0.2,0.2-0.3,0.3-0.4c0.1-0.1,0.2-0.1,0.2-0.1s0-1.6,0.9-2c1-0.4,2,0.3,2,0.3s0.2-1.2,0.9-1.4
		c0.7-0.2,1.4,0.5,1.4,0.5s0.7-0.7,1.5-0.9c0.5-0.1,0.8-0.1,1,0c0,0.5,0,0.9,0,1.4c0,2.5-0.3,5-0.8,7.4v-0.2
		C42.7,35.4,42.2,36,41,35.7 M41.7,38.8L41.7,38.8l-0.3-0.4c0,0,1-1-0.2-1.3c-0.8-0.2-0.8-0.2-0.8-0.2l0.2-0.6c0,0,0.6,0.1,1.2,0.1
		c0.3,0,0.6-0.1,0.7-0.1C42.3,37.2,42,38,41.7,38.8 M22.5,54.8c-10.1,0-18.5-9-20.5-21l2.8,0.5c0,0,8.2,2.7,12.3,3.2
		c4.1,0.5,6.9-0.6,8-0.6c0.8,0,4.7,0.3,6.3,0.4c0.1,0.3,0.3,0.6,0.3,0.6s-1.1,0.9-0.3,1.8c0.8,0.9,1.9,0,1.9,0s-0.1,0.9,1.5,0.9
		c1.6,0,2-0.8,2-0.8l0.9,0.5l0.6,2.2L37.3,45h0.3l1-2l1.2-1.3l-0.2-1.8l0.2-0.3l1.6-0.2C38.2,48.5,30.9,54.8,22.5,54.8 M38.3,36.3
		c0.8-0.2,1.1-0.7,1.1-0.7l0.2,0.3l-0.4,1l-0.7-0.2C38.5,36.7,38.3,36.3,38.3,36.3 M38.7,38.1c0,0,0.3-0.6,0.7-0.5
		c0.4,0.1,0.3,0.3,0.3,0.3s0.5-0.5,0.9-0.4c0.4,0.1,0.7,0.5,0.7,0.5s-0.5,0.2-0.4,0.4c0.1,0.3,0.3,0.4,0.3,0.4s-0.1,0.3-0.5,0.3
		c-0.4,0-0.8-0.4-0.8-0.4s-0.5,1-1.6,0.9c-1.1-0.1-1.4-1-1.4-1S36.5,40,35,39.9c-1.4,0-1.7-1.5-1.7-1.5s-0.7,1.3-1.3,0.8
		c-0.6-0.4,0.4-1.3,0.4-1.3s-0.7-0.4-0.1-1.1c0.6-0.7,1.2,0.2,1.2,0.2s0.3-0.7,0.9-0.5c0.6,0.1,0.7,0.9,0.7,0.9l0.3,0.2
		c0,0,0.4-0.3,0.7-0.3c0.4,0.1,0.6,0.5,0.6,0.5s0.6-0.6,1.1-0.5C38.5,37.6,38.7,38.1,38.7,38.1 M28,29.7L28,29.7L28,29.7l0,0.6
		l0,2.2l-1,0l0.9-2.4L28,29.7z M28.6,32.6l-0.1-2.3l0.6,0L28.6,32.6z M29.5,30.2L29.5,30.2l0.3-1.4l0,0.7l0,0.7l0,2.4l-1,0
		L29.5,30.2z M30.8,32.7l-0.3,0l-0.1-2.4l1.2,0L30.8,32.7z M32.5,28.3l-0.2,4.4l-1.1,0L32.5,28.3z M34.2,31.7c0,0.4,0.2,0.9,0.3,1.2
		L33,32.8l-0.1-5.2l1.5,2.8c0,0-0.1,0.2-0.1,0.6c0,0.1,0,0.2-0.1,0.3C34.2,31.5,34.2,31.6,34.2,31.7 M1.5,28.8l5,0.9l0.6,0.1l-1,1.1
		l-0.4,0l0.8,1.9l5.9,0.3l3.7,0.5l1.1-2.2l-2-0.1l-0.3-0.7c0.4-0.1,1.3-0.3,1.6-0.7c0.4-0.6-0.2-1,0.1-1.1c0.3-0.1,3.2,0,3.7-0.1
		c0.5,0,3.2-0.6,3.2-1.6c0-1.1-1.2-1.1-1.2-1.1s0.8-1.6,3.8-1.7c2.5-0.2,3.3,0,3.3-1c0-1-2.9-1.1-2.6-1.1c-2.7-0.3-5.4,0-5.4,0
		s-4,0-6.8-0.6C12,21,8.7,19.5,8.7,19.5l2.5-0.2l-0.9-0.7l-2.9,0l-4.1-1.3C6.7,8.1,14,1.7,22.5,1.7c11,0,20,10.8,20.9,24.4
		c-0.3-0.1-0.9-0.1-1.3,0c-0.7,0.1-1.3,0.7-1.3,0.7s-0.4-0.5-1.5-0.3c-1,0.3-1.1,1.2-1.1,1.2s-1.2-0.5-2.2,0c-1.1,0.6-1.1,2-1.1,2
		s0,0,0,0.1l-2-3.3l0-0.5l1,0.8v-1.3l-1.1-0.8v-0.1l-0.3,0l0,1.9l-0.8,2.9c0,0-0.6,0-1.5,0.1l-0.2-2.7c0.1,0,0.3,0,0.4,0.1
		c0.3,0.2,0.2,0.3,0.3,0.3c0.2,0.1,0.4,0,0.4,0l0.3-0.7L30,25.6l-0.9,4c-0.2,0-0.5,0-0.7,0l-0.1-2.6l-0.9,2.6c-1,0.1-1.8,0.1-2,0.1
		c-0.7,0-1.6,0-1.9-0.1c-0.3-0.1-0.4-0.6-0.1-0.8c0.3-0.3,1.2-0.5,1.2-0.5s0.4-0.1,0.5-0.6c0.2-0.5-0.2-0.7,0-1.3
		c0.3-0.5,1.3-0.9,1.3-0.9s2.6-0.2,3.2-0.3c0.5-0.1,1.5-0.5,1.5-0.5s0.7-0.4,0.7-1.1c0-0.7-0.6-1.2-0.4-1.5c0.3-0.3,2.7-0.6,2.7-0.6
		l1.5-0.1l2.3-0.3l2.2-0.9l2-0.5L42,19l-8.1,0.3L34,20l4.1,0.2l-2.5,0.6L34,21l-1.7,0.1l-0.8,0.1c0,0-0.5,0-0.8,0.3
		c-0.1,0.1-0.2,0.2-0.2,0.4c0,0.4,0.1,0.5,0.2,0.7c0.1,0.2,0.1,0,0.4,0.6c0,0,0.2,0.6-0.1,0.9c-0.2,0.3-1,0.5-1,0.5l-1.8,0.2
		c0,0-1.6,0.1-2.4,0.3c-0.9,0.2-1.4,0.8-1.6,1.3c-0.1,0.5,0.1,1.3-0.1,1.3c-0.1,0.1-1.4,0.7-1.6,1c-0.2,0.4-0.3,0.3,0,1
		c0.3,0.7,1.1,0.6,1.1,0.6l3.6-0.1l-0.7,2.1l0.1,0.1l-1.6-0.1l1.9,1.4c0,0,1,0.7,1.8,0.7c1.3,0.1,1.1-0.5,1.5-0.5
		c0.6,0.1,0.3,0.6,1.3,0.7c1,0,0.9-0.5,1.3-0.5c0.4,0,0.3,0.5,0.8,0.6c0.4,0.1,0.7-0.1,0.8-0.1c0,0.3,0.1,0.6,0.3,0.8
		c0.7,0.6,1.3,0.3,1.3,0.3l0.9,0.7l0,0.5l-0.6-0.1l-0.7,0.1c0,0-0.2-0.7-0.8-1c-0.5-0.2-1.2,0.2-1.2,0.2s-0.7-0.9-1.7-0.1
		c-0.1,0.1-0.1,0.1-0.2,0.2c-1-0.1-2.9-0.4-4.3-0.4c-1.8,0-7.4,0.9-10.7,0.5c-3.2-0.3-12.6-3.4-12.6-3.4l-2.3-0.3
		C1.7,31.4,1.6,30.1,1.5,28.8 M9,30L9,31l-2.5-0.1l0.4,0l2.3-2.6l0,0.6L9,30L9,30z M11.8,30.1l-0.5,1l-2-0.1l0.1-1l2.3,0L11.8,30.1z
		 M13,30.3l-0.1,0.9l-1-0.1l0.5-1l0,0l0.9-1.9l-0.2,1.1c0,0,0,0,0,0L13,30.3L13,30.3z M14.5,30.6L14.5,30.6l0.3,0.8l-1.4-0.1
		l0.2-2.7l0.6,1.3L14.5,30.6z M5.9,23.1l0,0.8l-0.2,0.3v0.2l-0.6,0l0.1-1.5l1.2-0.5l1.1,1l-0.1,0.9H6.9v-1.2H5.9z M1.8,24.1l2.5,0.8
		l0.9-0.1l2.6-0.1L8,23.3L6.4,22l-3.7-1l-0.4,0.1C2.5,20,2.8,19,3.1,18c1.2,0.4,5.4,1.9,6.7,2.6c1.5,0.8,4.9,1.7,4.9,1.7
		s3.1,0.4,3.7,0.4c0.6,0,4,0.1,4,0.1l4.4-0.1c0,0,2,0,2.1,0.5c0,0.5-2.1,0.5-2.1,0.5l-3.3,0.6l-2.2,1.5c0,0-2.5,1-3.9,0.6
		C16,26,14.9,25,14.9,25s-1.1-1-2.4-1.2c-1.3-0.2-2.2,0.4-2.2,0.4s2.7-0.4,3.9,1.1c1.2,1.5,2.3,1.5,3.1,1.7c0.8,0.1,3-0.3,3-0.3
		s2-0.5,1.5,0.5c-0.5,1-1.9,1-1.9,1s-2,0-3.1,0s-1.6,0.1-1.7,0.6c-0.1,0.6,0.5,0.5,0.5,0.8c0,0.2-0.2,0.5-0.9,0.6l-1.2-2.8l0-0.4
		h0.1l0.5,0.8l0.1-0.1l0.2-0.8l-1.1-1.1l-0.1,1.5l0,0l-1,1.9l-2.9-0.1l0.2-1.8l1,0.5l0.3-0.6L9.6,26l-0.2,0.1l-0.1,0.8l-0.1,0.7
		l-1.1,1.2L5,28.7l-3.4-0.8C1.5,26.6,1.6,25.4,1.8,24.1 M22.6,0C10.1,0,0,12.6,0,28.2c0,15.5,10.1,28.2,22.6,28.2
		c12.5,0,22.6-12.6,22.6-28.2C45.2,12.6,35,0,22.6,0"/>
	<path fill="#231F20" d="M20.6,19.1c0.2-1,1-1.8,2.1-1.8c1,0,1.9,0.8,2,1.9L20.6,19.1z M30.4,19.3L26,19.3l11.3-4.7L37,14.2
		l-10.9,4.1l7.8-5l-0.1-0.6l-8.1,5.2l8.6-8.4L34,9l-8.6,7.9l5-7.3l-0.6-0.3l-5.6,8l5.4-11.6L29,5.5l-5.2,11l2-9.7L25,6.6l-1.8,9.6
		L22.9,3.6h-0.5l-0.1,13.3L20.6,6.5L20,6.6l1.4,9.1l-5-11.4L16,4.7l4.5,11.1l-5-7.5l-0.6,0.3l5.7,8.9l-8.8-9.3l-0.5,0.4l8.2,8.8
		l-7.6-5.3l-0.5,0.6l8.2,5.4L8,13.1l-0.2,0.6l11.8,5.4L17,18.9l-0.7,0.7l14.4,0.3L30.4,19.3z"/>
	<path fill="#231F20" d="M21.7,18.5c-0.2,0-0.5,0-0.5,0.1c0,0.1,0.2,0.3,0.5,0.3c0.3,0,0.5-0.2,0.5-0.3
		C22.1,18.5,21.9,18.5,21.7,18.5"/>
	<path fill="#231F20" d="M23.4,18.5c-0.3,0-0.5,0-0.5,0.1c0,0.1,0.2,0.3,0.5,0.3c0.3,0,0.5-0.2,0.5-0.3
		C23.8,18.5,23.6,18.5,23.4,18.5"/>
	<path fill="#231F20" d="M23.3,17.9c-0.2,0-0.5,0.1-0.7,0.2c0,0,0,0,0,0v0h-0.2v0c0,0,0,0,0-0.1c-0.1-0.1-0.5-0.2-0.7-0.2
		c-0.3,0-0.6,0.2-0.7,0.5c0,0,0,0,0.1,0h0.1c0.1-0.1,0.3-0.2,0.5-0.2c0.4,0,0.7,0.3,0.7,0.7l0,0v0.2h0.2v-0.4
		c0.1-0.3,0.3-0.5,0.7-0.5c0.2,0,0.4,0.1,0.5,0.2h0.1c0,0,0.1,0,0.1,0C23.9,18.1,23.6,17.9,23.3,17.9"/>
	<polygon fill="#231F20" points="15.1,17.3 14.7,17.3 14.7,18.3 14,18.3 14,17.3 13.8,17.3 13.6,17.5 13.6,18.4 12.6,18.4 
		12.6,16.5 12.2,16.5 12.2,18.3 11,18.2 12.2,19.3 15.2,19.5 16.3,18.4 15.1,18.4 	"/>
	<polygon fill="#231F20" points="32.5,17 32.1,17 32.1,18.6 31.5,18.6 31.3,18.9 30.8,19.1 31.5,20.2 32.6,20.2 33.2,19.1 
		33.2,18.7 32.5,18.7 	"/>
	<path fill="#231F20" d="M42.1,23.4L42.1,23.4c0,0.2,0,1.1,0,1.2c-0.1,0-3,1-3.5,1.1l0-1.5L42.1,23.4L42.1,23.4z M37.5,25.7l0-1.1
		h-0.6v1.1h-0.7l0.1-1.1h-0.7v1.1h-0.5v-1.1c0.1-0.1,1.6-0.9,1.8-1c0.1,0.1,1.1,0.7,1.2,0.7c0,0.1,0,1.3,0,1.5H37.5z M37,22.9
		L37,22.9L37,22.9l-0.2-0.1v-0.5l0.7-0.1l0.1,0.1l0.1,0l0.1-0.3l0-0.3l-0.1-0.1l-0.1,0.1l-0.6,0.1l-0.3-0.1l-0.1,0.1v1.3L35,24.4
		v1.5h3.5l0,0l3.7-1.2l0.1-1.6l-2-1L37,22.9z"/>
	<polygon fill="#231F20" points="39.1,24.3 39.1,24.9 40.1,24.6 40.1,24.1 	"/>
	<polygon fill="#231F20" points="40.6,24 40.7,24.4 41.5,24.3 41.5,23.9 	"/>
	<path fill="#231F20" d="M25.3,39.5c0,0,0.4-0.4,0.4-0.4l0.6,0.6C26.4,39.7,25.8,39.8,25.3,39.5 M27.9,41.3c0,0,0.2,0.5,0.5,0.2
		c0.3-0.3-0.1-0.5-0.1-0.5s0.1-0.2,0.2-0.8c0.2-0.6,0.1-1.1,0.1-1c-0.4,0-0.6-0.2-0.6-0.2s-0.3,0.5-0.3,0.6c0,0.1,0.4,0.2,0.4,0.2
		l-0.1,0.9l-1.6-1.7l1-0.9l-0.5-0.5l-0.9,0.7L25.4,38c0,0-0.6-0.2-0.9,0.2c-0.3,0.3-0.2,1-0.2,1l-0.4,0.5l0.5,0.6l0.5-0.5
		c0,0,0.4,0.2,0.7,0.4c0.3,0.2,1.2,0.2,1.2,0.2l0.6,0.6c0,0-0.2,0.1-0.6,0.1c-0.4,0-0.5-0.1-0.5-0.1l0.2-0.3l-2.4,0.6
		c0,0,0.1,0.2,1.6,0.4C27.1,41.8,27.9,41.3,27.9,41.3"/>
	<path fill="#231F20" d="M14.4,41.2c-0.4,0.9-0.3,1.8-0.3,1.8L13,43.3l-0.7,0.9L12,43.6L11.1,43l-0.8-0.9l-0.2,0.4
		c0,0-0.3,0.7-0.6,0.7c-0.2,0-0.8-1.1-0.8-1.1s-0.4-0.6,0-1.3c0.4-0.7,1-0.9,2.3-0.5c1.4,0.5,1.5,0.3,1.5,0.3s0.1,0.1,0.7-0.6
		c0.4-0.5,0.7-1,1.4-1.1c0.3-0.1,0.7,0.3,0.7,0.3s0.2-0.4,0.5-0.4c0.2,0,0.7,1.1,0.7,1.1s0.2,1.1-0.2,1.2c-0.6,0.2-0.3-0.6-0.4-0.5
		c-0.1,0.1-0.8-0.7-0.8-0.7S14.8,40.3,14.4,41.2 M16.9,43.1l-0.2-0.9l0.2-0.2l0-0.3c0,0-0.8,0.3-1.3,0.4c-0.5,0.1-0.9,0.4-0.9,0.4
		s0.1-0.6,0.2-1.1c0.1-0.7,0.4-1,0.4-1s0.5,1.1,0.8,1.2c0.3,0.1,0.6,0.1,0.7-0.4c0.2-0.5,0.1-1.2,0.1-1.2l-0.1-1.6v-0.7l-0.4,0.4
		l-0.5-0.2l-0.1-0.5l-0.4,0.5l-0.5,0.4c0,0-1.1,0.2-2.3,1.6c-0.6,0.7-0.9-0.5-2.7-0.5c-1.6,0-1.8,1.1-1.8,1.4C7.9,41,7.8,42,8,42.6
		c0.2,0.6,0.7,1.3,0.7,1.3L9,45.5v1.6c0,0,0,0.3,0.3,0.3c0.3,0,0.3-0.2,0.3-0.2S9.5,46,9.5,45.3c-0.1-1.3,0.3-1.5,0.3-1.5l0.3,0.5
		l0,0.9l-0.2,1.6c0,0,0,0.4,0.3,0.5c0.3,0.1,0.3,0,0.4-0.1c0.1-0.1,0-1.3,0-1.8c0-0.5,0.2-1.8,0.2-1.8l0.7,0.3l0.4,1.6l0.1,2.1
		c0,0,0,0.3,0.2,0.4c0.2,0,0.2,0,0.3,0c0.1,0,0.3-0.1,0.3-0.3c0-0.2-0.1-2.6-0.1-2.6l0.3-0.3l0.1,2.9c0,0,0.1,0.1,0.2,0.2
		c0.1,0.1,0.4,0.1,0.4,0.1s0.2-0.1,0.2-0.4c0-0.2,0-2.7,0-2.7h0.2l0.5,0.8l0,0.7L14.1,48c0,0,0.2,0.3,0.4,0.3c0.2,0,0.2-0.1,0.2-0.1
		s-0.1-0.2,0-0.5c0-0.2,0.2-0.7,0.2-0.7s0.1-1.2,0.2-1.2c0.1,0.1,0,0.7,0.1,1.2c0,0.5,0.3,1.1,0.3,1.1s0.1,0.2,0.3,0.2
		c0.2-0.1,0.2-0.3,0.2-0.3s-0.1-0.3-0.1-0.7c-0.1-0.4-0.1-1.9-0.1-1.9l-0.2-1.2c0,0,0.6-0.8,0.8-0.7c0.2,0.1,0.2,0.4,0.2,0.5
		c0.1,0.1,0.3,0.1,0.5-0.2C17.1,43.5,16.9,43.1,16.9,43.1"/>
	<path fill="#231F20" d="M21.9,51.5c0,0-0.1,0.1-0.2,0c0-0.1-0.2-0.1-0.2-0.1s0,0.1-0.2,0.1c-0.2,0-0.1-0.1-0.1-0.1s0.1-0.2,0.1-0.4
		c0-0.2-0.2-0.2-0.2-0.3c0-0.1,0.2-0.1,0.2-0.1s0.1,0.1,0.2,0.1c0.1,0,0.1-0.2,0.1-0.2l0.1,0c0,0,0.1,0.1,0.1,0.3
		C21.9,51.1,21.9,51.5,21.9,51.5 M20.3,48.3c-0.5-0.2-1.3-0.2-1.3-0.2s-0.1,0-0.1,0.1c0,0.1,0.2,0.2,0.2,0.2s0.9,0.2,1.2,0.5
		c0.3,0.3,0.5,0.5,0.4,1c-0.1,0.5-0.1,0.3-0.4,0.3c-0.2,0-0.8,0.5-0.8,0.7c0,0.2,0.2,0.1,0.2,0.1l0.7-0.1c0,0,0.2,0,0.2,0.3
		c0,0.3-0.2,0.3-0.2,0.3l-1,0c0,0-0.4-0.2-0.4-0.4c0-0.2,0-0.4,0-0.4s-0.2,0.2-1,0c-0.8-0.2-0.5-1.5-0.5-1.5s0.4-0.8,0.7-1
		c0.3-0.2,0.6-0.3,0.6-0.3s0.4,0,1,0c0.6,0.1,1.3,0.6,1.3,0.6s0.3,0.3,0.4,0.5c0,0.2,0.1,0.9,0,1c-0.1,0.1-0.3,0.2-0.3,0
		c-0.1-0.2,0-0.7-0.1-0.9C21.1,48.9,20.8,48.5,20.3,48.3 M22.5,50.3l-0.3-0.2c0,0,0.2-0.9-0.3-1.4c-0.5-0.5-0.8-0.9-1.4-1.1
		c-0.6-0.2-1.3-0.3-2-0.1c-0.4,0.1-0.6,0.3-1.2,1c-0.6,0.7-0.4,1.8-0.2,2c0.1,0.2,1,1.2,1,1.2l0.1,0.7c0,0,0.1,0.1,0.2,0.1
		c0.1,0,0.2,0,0.2,0l0.3-0.2l0.1,0.3c0,0,0.1,0.1,0.2,0c0.1-0.1,0.2-0.2,0.2-0.2l0-0.5c0,0,0.1,0.1,0.3,0.1c0.2,0,0.3,0.1,0.3,0.1
		l0,0.6c0,0,0.1,0.1,0.2,0.1c0.1-0.1,0.2-0.2,0.2-0.2l0-0.4c0,0,0.2,0,0.4,0c0.2,0,0.5,0.1,0.5,0.1l0,0.5c0,0,0,0.1,0.1,0.1
		c0.1,0,0.2-0.1,0.2-0.1l0-0.5l0.2,0c0,0,0.2-0.2,0.4-0.6c0.1-0.4,0-0.8,0-0.8l0.3,0c0,0,0.1,0.2,0.2,0.2c0.1,0,0.1-0.1,0.1-0.1
		l0-0.3L22.5,50.3z"/>
	<path fill="#231F20" d="M26.5,48.8C26.5,48.8,26.5,48.8,26.5,48.8C26.5,48.7,26.5,48.7,26.5,48.8"/>
	<path fill="#231F20" d="M34.2,45l-0.5,0l0-0.5l0.1-0.5l-0.2-0.3l-0.2-0.1c0,0-0.4,0.1-0.5,0.2c-0.1,0.1-0.2,1.3-0.2,1.3
		s-0.5,0.1-1,0.1c-0.5-0.1-0.5,0.2-0.5,0.2l-0.4,1c0,0-0.4,0.1-0.5,0.2c-0.1,0.1-0.5,0.2-0.5,0.2l-0.3-0.2l0-0.2l-0.2,0l-0.1,0.5
		l-0.1,0.4c0,0-0.3,0.4-0.4,0.4c-0.1,0-0.2-0.2-0.2-0.2l-0.2-0.7c0,0,0-0.2-0.1-0.3c0-0.1-0.3,0-0.3,0s-0.1,0.4-0.2,0.7
		c-0.1,0.3-0.5,0.6-0.5,0.6L27.1,47c0,0,0-0.3,0-0.4c0-0.1,0.2-0.8,0.2-0.8l0.6-0.3l-0.7-0.1l-0.1-0.1l0.4-0.2l0.3-0.4l-0.2,0L27,45
		l0.1-0.3c0,0,0.9-0.7,1.2-0.9c0.2-0.2,0-0.4,0.7-1c0.6-0.6,1.4-0.1,2.2-0.2c0.8-0.1,1.4-0.8,1.4-0.8l0.9,0.3l1.2,0.2
		c0,0,0.3,0.2,0.3,0.8C34.9,43.7,34.2,45,34.2,45 M26.8,46.6l-0.5,0.3l-0.4,0.1c0,0-0.2,0.6-0.6,0.6c-0.4,0-0.3-0.2-0.3-0.2
		s0.3-0.6,0.4-0.9c0.1-0.3,0.1-1.2,0.1-1.2l0.2-0.2c0,0,0.3-0.2,0.4,0c0.1,0.2,0.6,0.4,0.6,0.4L26.8,46.6z M36.2,45.5
		c0,0-0.1-0.2-0.2-0.3c-0.1-0.1-0.2-0.1-0.2-0.1l0-0.4l-0.2,0c0,0-0.2,0.4-0.2,0.5c-0.1,0.1-0.4-0.1-0.4-0.1l0-0.2
		c0,0,0.5-0.5,0.7-1.7c0.2-1.2-0.5-1.4-0.5-1.4s-0.8-0.3-1.4-0.4c-0.6-0.1-1.4-0.5-1.4-0.5s-0.6,1.1-2.6,0.9
		c-0.8-0.1-1.2,0.4-1.2,0.4l-0.7,1.1l-0.7,0.6c0,0-0.4,0.7-0.9,0.9c-0.5,0.1-0.6-0.8-0.6-0.8l-0.2-0.1l-0.1,0.3l0.2,0.4l0,0.3h-0.5
		l-0.5-0.4l0.5,0.7l0,1l-0.4,0.8c0,0-0.2,0.2-0.1,0.4c0.1,0.2,0.7,0.8,1.4,0.4c0.6-0.4,0.7-0.6,0.7-0.6l0.2,0.7c0,0-0.3,0.8-0.3,0.8
		c0,0.2-0.1,0.9-0.1,0.9s0.6,0.1,0.8-0.1c0.2-0.2,0-0.2,0.1-0.8c0.1-0.5,0.7-0.9,0.7-0.9l0.1,0.2l0,1.6l0.3,0.2l0.4-0.2
		c0,0,0.1-1,0.4-1.7c0.3-0.6,0.8-0.8,0.8-0.8s0.5,0,0.6,0.6c0.1,0.6,0,1.1,0,1.1s0.2,0.5,0.4,0.5c0.3,0,0.2-0.1,0.2-0.1l0-0.7
		l0.1-0.1c0,0,0.1,0.3,0.4,0.6c0.4,0.4,0.7,0,0.7,0s-0.5-0.6-0.4-0.8c0.1-0.2,0.7-0.8,0.7-0.8s0.7-0.1,1.1-0.1
		c0.4,0,0.4,0.4,0.4,0.4l0,1.5l0.3,0.1l0.2-0.1l0-1.3c0,0,0.2-0.9,0.5-0.9c0.3-0.1,0.3,0.1,0.3,0.1l0.3,0.1c0,0,0.3-0.1,0.4-0.4
		c0.1-0.2-0.1-0.4-0.1-0.4V45.5z"/>
	<polygon fill="#231F20" points="26.3,45.8 26.3,45.8 26.2,46.1 26.4,46.3 26.6,46 26.6,45.8 	"/>
	<rect x="58.3" y="0" fill="#231F20" width="1.6" height="56.4"/>
	<polygon fill="#231F20" points="72.9,11.1 75.4,11.1 79.5,17.4 83.5,11.1 86,11.1 86,24.4 83.7,24.4 83.7,14.9 79.5,21.2 
		79.4,21.2 75.2,14.9 75.2,24.4 72.9,24.4 	"/>
	<path fill="#231F20" d="M89.2,18.8v-7.7h2.3v7.6c0,2.5,1.3,3.8,3.4,3.8c2.1,0,3.3-1.3,3.3-3.7v-7.7h2.3v7.5c0,4-2.2,6-5.7,6
		C91.4,24.6,89.2,22.6,89.2,18.8"/>
	<polygon fill="#231F20" points="103.8,11.1 105.9,11.1 113,20.3 113,11.1 115.3,11.1 115.3,24.4 113.4,24.4 106.1,15 106.1,24.4 
		103.8,24.4 	"/>
	<rect x="118.9" y="11.1" fill="#231F20" width="2.3" height="13.3"/>
	<path fill="#231F20" d="M124.2,17.8L124.2,17.8c0-3.8,2.8-6.9,6.8-6.9c2.4,0,3.9,0.9,5.2,2.1l-1.5,1.7c-1.1-1-2.2-1.6-3.7-1.6
		c-2.5,0-4.4,2.1-4.4,4.7v0c0,2.6,1.8,4.7,4.4,4.7c1.6,0,2.7-0.7,3.8-1.7l1.5,1.5c-1.4,1.4-2.9,2.3-5.4,2.3
		C127.1,24.7,124.2,21.6,124.2,17.8"/>
	<rect x="138.9" y="11.1" fill="#231F20" width="2.3" height="13.3"/>
	<path fill="#231F20" d="M149.8,18.1c1.8,0,2.9-1,2.9-2.4v0c0-1.6-1.1-2.4-2.9-2.4h-2.7v4.8H149.8z M144.8,11.1h5.2
		c3.1,0,5,1.8,5,4.4v0c0,3-2.4,4.5-5.3,4.5h-2.6v4.3h-2.3V11.1z"/>
	<path fill="#231F20" d="M164.2,19.2l-2.3-5.3l-2.3,5.3H164.2z M160.8,11.1h2.2l5.8,13.4h-2.5l-1.3-3.2h-6.3l-1.4,3.2H155
		L160.8,11.1z"/>
	<polygon fill="#231F20" points="171.1,11.1 173.4,11.1 173.4,22.3 180.4,22.3 180.4,24.4 171.1,24.4 	"/>
	<rect x="183" y="11.1" fill="#231F20" width="2.3" height="13.3"/>
	<path fill="#231F20" d="M193.8,22.3c2.8,0,4.6-1.9,4.6-4.5v0c0-2.6-1.8-4.5-4.6-4.5h-2.6v9H193.8z M188.9,11.1h5
		c4.2,0,7.1,2.9,7.1,6.6v0c0,3.7-2.9,6.6-7.1,6.6h-5V11.1z"/>
	<path fill="#231F20" d="M210.8,19.2l-2.3-5.3l-2.3,5.3H210.8z M207.5,11.1h2.2l5.8,13.4H213l-1.3-3.2h-6.3l-1.4,3.2h-2.4
		L207.5,11.1z"/>
	<path fill="#231F20" d="M222.7,22.3c2.8,0,4.6-1.9,4.6-4.5v0c0-2.6-1.8-4.5-4.6-4.5h-2.6v9H222.7z M217.8,11.1h5
		c4.2,0,7.1,2.9,7.1,6.6v0c0,3.7-2.9,6.6-7.1,6.6h-5V11.1z"/>
	<path fill="#231F20" d="M77.9,43.9c2.8,0,4.6-1.9,4.6-4.5v0c0-2.6-1.8-4.5-4.6-4.5h-2.6v9H77.9z M72.9,32.8h5
		c4.2,0,7.1,2.9,7.1,6.6v0c0,3.7-2.9,6.6-7.1,6.6h-5V32.8z"/>
	<polygon fill="#231F20" points="87.8,32.8 97.6,32.8 97.6,34.9 90.1,34.9 90.1,38.3 96.8,38.3 96.8,40.4 90.1,40.4 90.1,44 
		97.7,44 97.7,46.1 87.8,46.1 	"/>
	<polygon fill="#231F20" points="105.6,32.8 109.3,32.8 109.3,42.8 115.8,42.8 115.8,46.1 105.6,46.1 	"/>
	<path fill="#231F20" d="M125.1,40.8l-1.5-3.8l-1.5,3.8H125.1z M121.9,32.7h3.5l5.7,13.4h-3.9l-1-2.4h-5.1l-0.9,2.4h-3.9L121.9,32.7
		z"/>
	<path fill="#231F20" d="M143.1,39.4c1.3,0,2.1-0.7,2.1-1.7v0c0-1.1-0.8-1.7-2.1-1.7h-1.7v3.5H143.1z M137.7,32.8h5.7
		c3.4,0,5.5,1.7,5.5,4.7v0c0,3.1-2.4,4.8-5.7,4.8h-1.8v3.8h-3.7V32.8z"/>
	<polygon fill="#231F20" points="150.4,32.8 154.1,32.8 154.1,42.8 160.5,42.8 160.5,46.1 150.4,46.1 	"/>
	<path fill="#231F20" d="M169.9,40.8l-1.5-3.8l-1.5,3.8H169.9z M166.7,32.7h3.5l5.7,13.4H172l-1-2.4h-5.1l-0.9,2.4h-3.9L166.7,32.7z
		"/>
	<polygon fill="#231F20" points="178.7,36 174.8,36 174.8,32.8 186.4,32.8 186.4,36 182.4,36 182.4,46.1 178.7,46.1 	"/>
	<path fill="#231F20" d="M194.1,40.8l-1.5-3.8l-1.5,3.8H194.1z M190.9,32.7h3.5l5.7,13.4h-3.9l-1-2.4h-5.1l-0.9,2.4h-3.9L190.9,32.7
		z"/>
</g>
</svg>
